<svg width="124" height="24" viewBox="0 0 123.298 24" fill="none" xmlns="http://www.w3.org/2000/svg">
<g id="logo-mark">
<path id="Vector" d="M18.6583 19.2076C18.6261 19.2076 18.595 19.2098 18.5629 19.2098C18.5107 19.2098 18.4597 19.2076 18.4075 19.2054C18.6894 16.0784 16.7497 13.6639 13.6106 13.3721H2.93828L0 24H23.9368C27.5208 24 30.5257 21.7586 31.4567 18.3909L32.8437 13.3721H26.8207C23.4751 13.6051 20.1285 16.0385 18.6583 19.2076Z" fill="#FF5001"/>
<path id="Vector_2" d="M40.6654 2.67029e-05H16.7287C13.1446 2.67029e-05 10.1397 2.24146 9.20875 5.60916L7.82172 10.628H13.6162C17.0504 10.4871 20.528 7.99263 22.0193 4.73256C22.0693 4.73145 22.1192 4.72923 22.1691 4.72923C22.1969 4.72923 22.2235 4.73145 22.2512 4.73145C21.9383 7.93715 23.9545 10.4038 27.2057 10.6291H37.7282L40.6665 0.00113571L40.6654 2.67029e-05Z" fill="#FF5001"/>
<path id="Vector_3" d="M18.6583 19.2076C18.6261 19.2076 18.595 19.2098 18.5629 19.2098C18.5107 19.2098 18.4597 19.2076 18.4075 19.2054C18.6894 16.0784 16.7497 13.6639 13.6106 13.3721H2.93828L0 24H23.9368C27.5208 24 30.5257 21.7586 31.4567 18.3909L32.8437 13.3721H26.8207C23.4751 13.6051 20.1285 16.0385 18.6583 19.2076Z" fill="#FF5001"/>
<path id="Vector_4" d="M40.6654 2.67029e-05H16.7287C13.1446 2.67029e-05 10.1397 2.24146 9.20875 5.60916L7.82172 10.628H13.6162C17.0504 10.4871 20.528 7.99263 22.0193 4.73256C22.0693 4.73145 22.1192 4.72923 22.1691 4.72923C22.1969 4.72923 22.2235 4.73145 22.2512 4.73145C21.9383 7.93715 23.9545 10.4038 27.2057 10.6291H37.7282L40.6665 0.00113571L40.6654 2.67029e-05Z" fill="#FF5001"/>
</g>
<g id="logo-wordmark" transform="translate(42.37 5.86)">
<path id="Vector" d="M13.6617 10.2751C13.5241 10.092 13.5163 9.76578 13.6395 9.30528L14.5749 5.86546H17.6141L18.0602 4.2676L18.0646 4.24985H13.3865C14.0034 4.18105 14.4695 4.02127 14.8689 3.74608C15.3139 3.43872 15.6346 2.96491 15.821 2.33797L16.1461 1.09187L16.1505 1.07411H13.9346L11.428 9.81016C11.3037 10.2773 11.2826 10.6734 11.367 10.9875C11.4502 11.3015 11.6055 11.56 11.8275 11.7542C12.0483 11.9484 12.3246 12.0871 12.6475 12.167C12.9704 12.2469 13.3066 12.2868 13.6472 12.2868C14.1011 12.2868 14.5294 12.2613 14.92 12.2103C15.3117 12.1592 15.6301 12.0871 15.8654 11.9961L15.872 11.9939L16.2715 10.5525H14.5971C14.1144 10.5525 13.7993 10.4593 13.6617 10.2762V10.2751Z" fill="#3F0B79"/>
<path id="Vector_2" d="M25.5735 4.8202C25.3438 4.42073 24.9942 4.11448 24.536 3.9092C24.0777 3.70503 23.534 3.60072 22.9204 3.60072C22.3067 3.60072 21.6876 3.69615 21.1128 3.88257C20.5391 4.07009 20.0043 4.35194 19.5249 4.72144C19.0456 5.09094 18.6195 5.54811 18.2555 6.08184C17.8916 6.61556 17.6108 7.23251 17.42 7.91271C17.2269 8.61732 17.1581 9.24536 17.2147 9.77909C17.2713 10.3139 17.4288 10.7733 17.6841 11.1428C17.9393 11.5134 18.2932 11.7964 18.736 11.9839C19.1787 12.1714 19.708 12.2669 20.3105 12.2669C21.2537 12.2669 22.1314 12.0649 22.9192 11.6677C23.7071 11.2704 24.3606 10.6535 24.86 9.83568L24.8689 9.82237L23.3631 9.16658L23.352 9.16214L23.3453 9.17213C23.028 9.64594 22.6385 10.0132 22.1858 10.2607C21.7331 10.5092 21.2459 10.6346 20.7388 10.6346C20.4348 10.6346 20.1663 10.5836 19.9399 10.4826C19.7136 10.3816 19.5282 10.234 19.3907 10.0432C19.2519 9.85233 19.1576 9.61931 19.111 9.34856C19.0644 9.08225 19.0733 8.77711 19.1377 8.44311H25.5568L25.5601 8.43312C25.8187 7.63864 25.9441 6.9307 25.9341 6.32817C25.9241 5.72565 25.802 5.21855 25.5735 4.81909V4.8202ZM24.1343 7.18702H19.5049C19.6359 6.87743 19.8012 6.59448 19.9965 6.34703C20.1951 6.09404 20.4281 5.87655 20.6878 5.70123C20.9463 5.52702 21.2282 5.39276 21.5256 5.30177C21.8218 5.21189 22.1325 5.1664 22.4488 5.1664C22.765 5.1664 23.0224 5.21189 23.2499 5.30177C23.4774 5.39165 23.6671 5.52259 23.8125 5.69125C23.959 5.85991 24.061 6.07296 24.1154 6.32595C24.1687 6.57673 24.1753 6.86634 24.1343 7.18813V7.18702Z" fill="#3F0B79"/>
<path id="Vector_3" d="M30.9318 0.15091H28.8712L25.6167 12.1148L25.6123 12.1326H27.674L30.9274 0.168665L30.9318 0.15091Z" fill="#3F0B79"/>
<path id="Vector_4" d="M34.365 0.15091H32.3033L29.0499 12.1148L29.0443 12.1326H31.106L34.3594 0.168665L34.365 0.15091Z" fill="#3F0B79"/>
<path id="Vector_5" d="M41.1481 4.383C40.6854 3.86481 39.8909 3.60183 38.7868 3.60183L35.1828 3.82708H35.1728L34.7711 5.35281L34.7667 5.37057H37.7704C37.7704 5.37057 37.7726 5.37057 37.7737 5.37057C37.7771 5.37057 37.7793 5.37057 37.7826 5.37057C38.4362 5.37057 38.8911 5.49596 39.1364 5.74229C39.3794 5.98641 39.4337 6.35702 39.3006 6.84526H36.8516C36.3867 6.84526 35.9373 6.89962 35.5179 7.00837C35.0973 7.11711 34.7023 7.29243 34.345 7.531C33.9866 7.76957 33.6681 8.07583 33.4007 8.43978C33.1322 8.80374 32.9247 9.25313 32.7838 9.77687C32.5674 10.608 32.6018 11.2382 32.8881 11.6499C33.1744 12.0616 33.6781 12.2702 34.3861 12.2702C34.7611 12.2702 35.1617 12.1925 35.5745 12.0383C35.9873 11.8852 36.3834 11.6832 36.7529 11.4391C37.1224 11.195 37.4719 10.9165 37.7915 10.6091C38.0922 10.3195 38.3485 10.0265 38.5549 9.73693L38.1255 12.1171L38.1222 12.1337H39.9431L41.4288 6.65884C41.7062 5.66795 41.6119 4.90231 41.1481 4.383ZM39.0132 8.01812L38.5982 9.53275C38.4428 9.64372 38.2786 9.75468 38.11 9.86231C37.9413 9.96995 37.7626 10.0643 37.5807 10.143C37.3976 10.2218 37.1967 10.2851 36.9848 10.3306C36.7718 10.3761 36.5321 10.3983 36.2724 10.3983C35.7542 10.3983 35.3947 10.294 35.2027 10.0865C35.0108 9.88007 34.962 9.57159 35.0563 9.1688C35.1717 8.78709 35.3725 8.49637 35.6555 8.30551C35.9373 8.11466 36.4011 8.01812 37.0336 8.01812H39.0132Z" fill="#3F0B79"/>
<path id="Vector_6" d="M9.53497 6.30931C9.16214 6.11068 8.67169 5.9631 8.07804 5.87212L5.55476 5.47931C5.02326 5.38943 4.66707 5.2363 4.4973 5.02326C4.32753 4.81132 4.27981 4.55167 4.35304 4.24985C4.40297 4.08119 4.48731 3.91918 4.60271 3.76827C4.71811 3.61737 4.8901 3.47977 5.11536 3.36215C5.34061 3.24342 5.63022 3.14911 5.97531 3.08142C6.32041 3.01373 6.74872 2.97933 7.24583 2.97933C7.25914 2.97933 7.27357 2.97822 7.28688 2.97711H12.1526L12.6863 1.09076L12.6907 1.073H7.88275C7.83503 1.073 7.81173 1.07411 7.80064 1.07522C7.79731 1.07522 7.79398 1.07522 7.79065 1.07522C7.78289 1.07522 7.77623 1.07411 7.76735 1.07411C6.93846 1.07411 6.20056 1.15179 5.57363 1.30492C4.94558 1.45804 4.39521 1.67664 3.93583 1.95515C3.47645 2.23367 3.1014 2.57099 2.81955 2.95825C2.53771 3.3444 2.32577 3.77715 2.19039 4.24319C2.08498 4.63045 2.04614 4.99995 2.0761 5.34061C2.10606 5.68348 2.22036 5.99529 2.41676 6.26936C2.61316 6.54344 2.90166 6.77978 3.27671 6.97397C3.65066 7.16704 4.1289 7.31129 4.70035 7.40228L7.12266 7.77844C7.69855 7.87942 8.07472 8.03033 8.24116 8.22673C8.40649 8.42202 8.44422 8.6961 8.35545 9.0423C8.23561 9.46951 7.92048 9.80794 7.42004 10.0498C6.91738 10.2928 6.20944 10.416 5.3162 10.416C5.30954 10.416 5.30288 10.416 5.29622 10.4182H0.61806L0.00554687 12.3046L1.18108e-07 12.3223H4.50284C4.52171 12.3223 4.56054 12.3212 4.59272 12.3201C4.65153 12.3201 4.68815 12.319 4.69259 12.3179H4.70035C4.71367 12.3201 4.72699 12.3212 4.74252 12.3212C5.5703 12.3212 6.3204 12.2436 6.97064 12.0904C7.62088 11.9373 8.19566 11.7154 8.67724 11.4313C9.15882 11.1473 9.55828 10.8011 9.86454 10.4027C10.1697 10.0043 10.3883 9.56604 10.5126 9.1C10.6191 8.70276 10.6668 8.32549 10.6546 7.97707C10.6424 7.62865 10.5458 7.31129 10.3672 7.03056C10.1885 6.75094 9.90892 6.50793 9.53497 6.3082V6.30931Z" fill="#3F0B79"/>
<path id="Vector_7" d="M43.7313 5.32174H48.5493L48.9931 3.74053L48.9976 3.72278H45.5666L45.7197 3.15909C45.844 2.68639 46.0582 2.32688 46.3567 2.09053C46.654 1.85418 47.0679 1.73545 47.5861 1.73545H49.458L49.9385 0.0177543L49.943 0H47.6649C47.291 0 46.9026 0.0488231 46.512 0.14536C46.1214 0.241897 45.7464 0.400573 45.3957 0.616949C45.0451 0.833325 44.7322 1.11295 44.467 1.44806C44.2007 1.78427 44.0031 2.19594 43.8778 2.67308L41.3123 12.1137L41.3079 12.1315H43.3851L44.8143 6.87965C44.9408 6.39919 44.903 6.02746 44.7033 5.77447C44.5269 5.55143 44.1996 5.39831 43.7291 5.31842L43.7313 5.32174Z" fill="#3F0B79"/>
<path id="Vector_8" d="M56.8337 6.08294C56.7705 5.55365 56.5951 5.0976 56.3122 4.7281C56.0281 4.35748 55.6375 4.07453 55.1493 3.887C54.6611 3.69948 54.0796 3.60405 53.4216 3.60405C52.7636 3.60405 52.1322 3.69948 51.5464 3.8859C50.9605 4.07342 50.4179 4.35526 49.9341 4.72477C49.4503 5.09427 49.0209 5.54811 48.658 6.07629C48.2952 6.60447 48.0133 7.22918 47.8203 7.93268C47.6283 8.62509 47.5684 9.24758 47.6427 9.78242C47.7159 10.3173 47.8968 10.7766 48.1809 11.1461C48.4638 11.5168 48.8555 11.7997 49.3438 11.9872C49.8309 12.1748 50.4123 12.2702 51.0714 12.2702C51.7305 12.2702 52.3608 12.1748 52.9467 11.9883C53.5326 11.8008 54.0752 11.519 54.559 11.1495C55.0428 10.7811 55.4666 10.3228 55.8195 9.78908C56.1713 9.25535 56.4476 8.63396 56.6395 7.94156C56.8326 7.23806 56.8981 6.61334 56.8348 6.08406L56.8337 6.08294ZM54.6355 7.88164C54.4092 8.70609 54.0153 9.34634 53.466 9.78686C52.9167 10.2263 52.272 10.4493 51.5497 10.4493C50.8273 10.4493 50.3058 10.2296 49.994 9.79796C49.6811 9.36521 49.6378 8.72273 49.8653 7.88941C49.9685 7.51658 50.1161 7.17592 50.3025 6.87743C50.4889 6.57895 50.7175 6.31818 50.9804 6.10403C51.2434 5.88987 51.543 5.72121 51.8704 5.60248C52.1977 5.48375 52.5517 5.42383 52.9245 5.42383C53.6447 5.42383 54.1684 5.64354 54.4802 6.07518C54.792 6.50793 54.8453 7.116 54.6355 7.88164Z" fill="#3F0B79"/>
<path id="Vector_9" d="M64.6321 3.63845L64.6365 3.6207H64.0385C63.5946 3.6207 63.163 3.70725 62.7535 3.87813C62.3452 4.0479 61.9568 4.28203 61.5995 4.57164C61.2422 4.86125 60.9049 5.19747 60.5964 5.57252C60.3101 5.91983 60.0549 6.27602 59.8363 6.63332L60.6286 3.72389L60.633 3.70614H58.5725L56.2755 12.116L56.2711 12.1337H58.3317L59.762 6.86856C60.0571 6.49794 60.3967 6.20056 60.7717 5.98641C61.1468 5.77225 61.6117 5.66351 62.1532 5.66351H64.0762L64.631 3.63845H64.6321Z" fill="#3F0B79"/>
<path id="Vector_10" d="M69.8362 8.94355L69.8296 8.95464C69.5433 9.46285 69.1727 9.84234 68.7266 10.0842C68.2806 10.3261 67.7857 10.4493 67.2553 10.4493C66.5462 10.4493 66.0336 10.2363 65.7318 9.8146C65.4299 9.39405 65.3922 8.74493 65.6219 7.8883C65.8194 7.12044 66.1878 6.51126 66.7138 6.0774C67.2408 5.64354 67.8789 5.42383 68.6123 5.42383C69.1527 5.42383 69.5777 5.54367 69.8751 5.77891C70.1713 6.01415 70.3455 6.36146 70.3933 6.81086V6.82306H72.3828V6.80975C72.4505 5.76338 72.1897 4.9589 71.6094 4.4174C71.0291 3.87702 70.1769 3.60294 69.075 3.60294C68.4292 3.60294 67.8067 3.69504 67.2264 3.87702C66.6461 4.059 66.1157 4.33529 65.6496 4.69925C65.1836 5.06209 64.7653 5.52037 64.4058 6.05964C64.0473 6.59892 63.7677 7.22918 63.5758 7.93268C63.3827 8.63618 63.3194 9.26645 63.3871 9.80794C63.4548 10.3483 63.6235 10.8077 63.8909 11.1717C64.1572 11.5367 64.5378 11.8141 65.0216 11.9961C65.5043 12.1781 66.0768 12.2702 66.7249 12.2702C67.7013 12.2702 68.6145 12.0571 69.4379 11.6366C70.2623 11.2161 70.9481 10.5547 71.4763 9.66813L71.484 9.65482L69.8473 8.94799L69.8362 8.94355Z" fill="#3F0B79"/>
<path id="Vector_11" d="M80.5629 4.82242C80.3333 4.42295 79.9837 4.1167 79.5255 3.91142C79.0672 3.70725 78.5246 3.60294 77.911 3.60294C77.2973 3.60294 76.6782 3.69837 76.1045 3.88479C75.5308 4.0712 74.996 4.35415 74.5177 4.72366C74.0395 5.09316 73.6123 5.55033 73.2483 6.08406C72.8844 6.61778 72.6036 7.23362 72.4128 7.91493C72.2197 8.61954 72.1509 9.24648 72.2075 9.78131C72.2641 10.3162 72.4217 10.7744 72.6769 11.145C72.9321 11.5157 73.2861 11.7986 73.7288 11.9861C74.1715 12.1737 74.7008 12.2691 75.3033 12.2691C76.2465 12.2691 77.1231 12.0671 77.911 11.6699C78.6988 11.2726 79.3513 10.6557 79.8506 9.8379L79.8595 9.82459L78.3537 9.16991L78.3426 9.16547L78.3359 9.17546C78.0197 9.64927 77.6291 10.0154 77.1775 10.264C76.7259 10.5126 76.2388 10.6379 75.7317 10.6379C75.4276 10.6379 75.1591 10.5869 74.9327 10.4859C74.7064 10.3849 74.5222 10.2374 74.3835 10.0465C74.2448 9.85566 74.1505 9.62264 74.1038 9.35189C74.0572 9.08558 74.0661 8.78044 74.1305 8.44644H80.5485L80.5519 8.43645C80.8104 7.64196 80.9358 6.93402 80.9258 6.33261C80.9158 5.73008 80.7938 5.22299 80.5652 4.82353L80.5629 4.82242ZM79.1238 7.18813H74.4967C74.6276 6.87855 74.7929 6.5967 74.9882 6.34815C75.1868 6.09515 75.4199 5.87767 75.6795 5.70235C75.938 5.52813 76.2199 5.39387 76.5162 5.30288C76.8124 5.213 77.1231 5.1664 77.4383 5.1664C77.7534 5.1664 78.0119 5.21189 78.2394 5.30177C78.4669 5.39165 78.6555 5.52259 78.802 5.69014C78.9485 5.8588 79.0505 6.07185 79.1038 6.32373C79.1571 6.57451 79.1637 6.86412 79.1227 7.18591L79.1238 7.18813Z" fill="#3F0B79"/>
</g>
</svg>
