<svg width="39" height="23" viewBox="0 0 39 23" fill="none" xmlns="http://www.w3.org/2000/svg">
<path d="M17.7333 18.2557C17.7027 18.2557 17.6732 18.2578 17.6426 18.2578C17.593 18.2578 17.5445 18.2557 17.495 18.2536C17.7628 15.2817 15.9194 12.9869 12.9359 12.7095H2.7927L0.000106812 22.8105H22.7501C26.1564 22.8105 29.0123 20.6802 29.8971 17.4795L31.2154 12.7095H25.491C22.3113 12.931 19.1307 15.2437 17.7333 18.2557Z" fill="#FF5001"/>
<path d="M38.6498 0H15.8999C12.4935 0 9.63763 2.1303 8.75281 5.33103L7.43456 10.101H12.9417C16.2057 9.96708 19.5108 7.59632 20.9282 4.49789C20.9757 4.49684 21.0231 4.49473 21.0706 4.49473C21.097 4.49473 21.1223 4.49684 21.1486 4.49684C20.8512 7.54359 22.7675 9.88798 25.8575 10.1021H35.8583L38.6509 0.00105403L38.6498 0Z" fill="#FF5001"/>
</svg>
